<svg xmlns="http://www.w3.org/2000/svg" version="1.1" xmlns:xlink="http://www.w3.org/1999/xlink" xmlns:svgjs="http://svgjs.dev/svgjs" width="1440" height="560" preserveAspectRatio="none" viewBox="0 0 1440 560"><g mask="url(&quot;#SvgjsMask1140&quot;)" fill="none"><rect width="1440" height="560" x="0" y="0" fill="rgba(24, 106, 59, 1)"></rect><path d="M0,584.802C116.436,586.686,247.419,598.739,336.863,524.169C425.152,450.562,413.156,314.717,453.197,206.968C489.639,108.905,579.452,22.336,561.662,-80.755C543.912,-183.615,425.815,-231.198,363.174,-314.692C294.059,-406.817,281.97,-553.346,175.031,-596.1C68.726,-638.6,-46.69,-563.554,-152.995,-521.054C-250.279,-482.16,-346.477,-438.854,-415.482,-360.017C-484.696,-280.94,-540.397,-182.869,-540.984,-77.782C-541.545,22.747,-452.361,96.472,-418.559,191.15C-380.329,298.231,-412.752,435.48,-329.927,513.377C-246.266,592.06,-114.834,582.943,0,584.802" fill="#13542f"></path><path d="M1440 936.116C1528.626 942.383 1618.6109999999999 1000.448 1699.646 964.018 1781.8310000000001 927.071 1821.226 833.0640000000001 1855.029 749.537 1887.759 668.663 1901.022 581.855 1889.296 495.401 1877.505 408.473 1843.476 326.39 1788.376 258.13 1731.97 188.253 1658.4859999999999 134.22500000000002 1573.75 104.49099999999999 1486.064 73.72199999999998 1389.95 59.733000000000004 1301.163 87.16500000000002 1212.945 114.42200000000003 1148.952 185.64100000000002 1087.645 254.683 1025.6689999999999 324.47900000000004 955.1410000000001 396.027 944.557 488.766 934.0609999999999 580.729 984.6510000000001 666.729 1031.509 746.552 1074.614 819.981 1125.69 893.054 1202.925 928.896 1276.123 962.864 1359.505 930.424 1440 936.116" fill="#1d8047"></path></g><defs><mask id="SvgjsMask1140"><rect width="1440" height="560" fill="#ffffff"></rect></mask></defs></svg>